<svg xmlns="http://www.w3.org/2000/svg" height="2048" preserveAspectRatio="none" style="display: block;" version="1.1" viewBox="0 0 2048 2048" width="2048">
<defs>
	<linearGradient gradientUnits="userSpaceOnUse" id="Gradient1" x1="1049.85" x2="998" y1="1654.64" y2="393.835">
		<stop class="stop0" offset="0" stop-color="rgb(108,19,249)" stop-opacity="1"></stop>
		<stop class="stop1" offset="1" stop-color="rgb(170,50,250)" stop-opacity="1"></stop>
	</linearGradient>
</defs>
<path d="M 0 0 L 2048 0 L 2048 2048 L 0 2048 L 0 0 z" fill="rgb(24,16,21)" transform="translate(0,0)"></path>
<path d="M 1000.64 392.418 C 1001.12 392.359 1001.6 392.301 1002.08 392.242 C 1041.37 389.415 1080.81 394.91 1117.82 408.369 C 1142.42 417.571 1176.87 439.047 1200.58 452.618 L 1319.96 520.604 L 1433.81 585.835 C 1459.82 600.768 1490.57 616.837 1513.58 635.376 C 1571.82 682.303 1608.07 759.587 1607.98 834.208 C 1607.96 852.289 1608 870.499 1607.97 888.644 L 1607.87 1014.76 L 1607.63 1158.76 C 1607.6 1189.94 1610.01 1227.75 1604.02 1257.68 C 1595.9 1298.29 1575.34 1345.34 1549.37 1377.42 C 1535.75 1394.26 1519.76 1409.05 1501.91 1421.32 C 1480.54 1436.16 1448 1453.52 1424.72 1466.84 L 1300.95 1538 L 1191.88 1601.08 C 1139.03 1631.4 1111.22 1650.27 1048.24 1656.68 L 1046.84 1656.83 C 1001.16 1661.33 943.165 1650.33 902.701 1628.76 C 881.541 1617.48 859.867 1604.44 839.025 1592.43 L 715.37 1521.39 L 607.965 1459.62 C 583.918 1445.73 555.78 1430.97 534.688 1413.32 C 482.068 1370.14 448.843 1307.75 442.375 1239.99 C 440.115 1213.88 441.057 1179.48 441.078 1152.58 L 441.079 1011.02 L 440.914 885.544 C 440.833 856.827 439.242 819.65 444.102 792.226 C 451.961 747.89 470.757 702.084 499.969 667.526 C 514.098 650.841 530.382 636.108 548.392 623.712 C 563.272 613.625 590.044 599.338 606.263 590.024 L 723.043 523.024 L 843.479 453.923 C 863.178 442.62 894.906 423.163 914.388 414.62 C 941.661 402.353 970.832 394.844 1000.64 392.418 z" fill="url(#Gradient1)" transform="translate(0,0)"></path>
<path d="M 999.064 439.477 C 1001.74 440.297 1001.03 447.598 1001.03 450.567 L 1000.96 635.912 L 1000.92 691.118 C 1000.91 710.373 995.617 742.295 1024.26 742.548 C 1030.53 742.602 1036.54 740.035 1040.84 735.467 C 1044.15 731.99 1046.27 727.541 1046.87 722.773 C 1047.62 716.389 1047.22 702.07 1047.21 695.282 L 1047.16 640.244 L 1047.25 439.429 C 1047.58 439.461 1047.92 439.493 1048.25 439.526 C 1070.25 442.09 1091.7 448.1 1111.83 457.334 C 1135.19 468.094 1168.57 488.466 1191.48 501.61 L 1323.03 576.996 L 1417.24 630.664 C 1463.96 657.09 1487.05 667.328 1521.58 710.575 C 1465.67 742.056 1407.48 777.04 1351.81 809.596 L 1299.41 840.205 C 1282.36 850.014 1248.19 862.703 1260.15 887.633 C 1262.87 893.329 1267.78 897.685 1273.76 899.716 C 1278.06 901.157 1284.54 901.489 1288.57 899.466 C 1311.75 887.834 1335.52 873.088 1357.98 860.084 L 1476.77 791.092 C 1498.44 778.489 1522.19 764.017 1544.18 752.282 C 1545.88 755.936 1547.43 759.655 1548.83 763.431 C 1555.2 780.453 1559.18 798.273 1560.67 816.386 C 1562.84 843.099 1562.02 875.787 1562.02 902.918 L 1562 1039.69 L 1562.06 1159.52 C 1562.06 1182.6 1562.91 1211.87 1560.57 1234.25 C 1558.3 1254.65 1552.73 1274.56 1544.08 1293.18 C 1483.57 1259.9 1422.28 1223.2 1362.27 1188.57 L 1315.16 1161.42 C 1306.66 1156.45 1298 1150.81 1289.1 1146.67 C 1272.18 1138.95 1254.63 1156.69 1258.65 1173.6 C 1262.1 1188.08 1280.31 1195 1292.45 1202.07 L 1347.73 1234.09 C 1405.47 1268 1463.56 1301.31 1521.98 1334.04 C 1491.54 1380.38 1448.07 1398.36 1401.47 1425.4 L 1259.32 1507.45 L 1165.24 1562.16 C 1121.94 1587.3 1100.2 1602.67 1048.87 1609.54 C 1048.34 1609.18 1047.81 1608.82 1047.28 1608.46 C 1046.9 1600.63 1047.06 1585.37 1047.06 1578.24 L 1047 1404.79 L 1046.99 1354.38 C 1047 1345.02 1047.68 1333.87 1046.45 1324.66 C 1043.05 1299.32 1004.96 1298.79 1001.56 1324.15 C 1000.23 1334.04 1001 1346.62 1001.01 1356.74 L 1000.97 1414.19 L 1000.97 1609.39 C 995.97 1609.16 990.994 1608.62 986.067 1607.76 C 936.817 1598.84 902.194 1575.5 859.848 1551.13 L 742.455 1483.55 L 640.498 1424.99 C 593.113 1398 558.193 1382.58 525.748 1335.77 C 545.892 1325.06 567.637 1311.97 587.49 1300.48 L 689.173 1241.73 L 748.978 1207.05 C 760.927 1200.12 784.263 1189.85 788.686 1176.7 C 790.695 1170.9 790.283 1164.53 787.543 1159.04 C 782.715 1149.27 768.725 1142.33 759.122 1147.23 C 735.815 1159.12 712.864 1174.03 690.182 1187.03 C 627.982 1223.4 565.485 1259.27 502.698 1294.62 C 483.701 1243.72 486.891 1214.39 486.942 1161.81 L 487.023 1033.17 L 486.904 898.699 C 486.845 842.332 483.049 805.961 504.212 752.101 L 674.085 850.224 L 726.916 880.931 C 737.143 886.895 747.001 892.404 757.377 898.054 C 774.964 907.629 794.216 889.122 789.324 871.386 C 787.919 866.152 784.822 861.53 780.515 858.24 C 774.077 853.345 759.047 845.292 751.436 840.972 C 735.389 831.917 719.411 822.74 703.504 813.442 C 644.744 779.009 585.767 744.948 526.575 711.263 C 529.733 706.972 532.975 702.745 536.301 698.583 C 564.009 664.332 610.004 641.804 648.066 620.007 C 688.727 596.423 729.541 573.107 770.508 550.06 L 871.988 491.553 C 892.906 479.609 916.211 465.77 938.121 456.01 C 957.422 447.279 977.997 441.698 999.064 439.477 z" fill="rgb(24,16,21)" transform="translate(0,0)"></path>
<path d="M 1226.35 641.153 C 1237.93 640.403 1247.19 641.936 1253.78 653.401 C 1255.91 657.12 1256.97 666.386 1255.05 670.206 C 1245.44 689.39 1233.18 707.649 1222.13 726.139 L 1198.99 764.93 C 1190.87 778.564 1188.9 786.764 1173.98 793.693 C 1162.67 795.802 1152.12 792.535 1146.82 781.747 C 1139.32 766.457 1154.87 747.15 1162.62 734.464 L 1187.46 693.613 C 1196.44 678.797 1206.05 662.341 1215.72 647.955 C 1217.61 645.148 1223.16 642.678 1226.35 641.153 z" fill="rgb(139,35,249)" transform="translate(0,0)"></path>
<path d="M 878.545 1251.2 C 889.461 1252.41 899.011 1256.54 902.406 1268.31 C 905.114 1277.69 902.014 1283.55 897.327 1291.45 L 863.707 1346.99 C 854.392 1362.66 845.229 1378.56 835.191 1393.77 C 830.42 1401 825.697 1403.02 817.491 1405.12 C 806.55 1404.73 796.182 1397.13 793.516 1386.14 C 790.593 1374.09 800.309 1362.02 806.57 1351.83 C 825.078 1321.71 843.581 1291.39 861.904 1261.14 C 866.019 1254.35 871.151 1252.72 878.545 1251.2 z" fill="rgb(139,35,249)" transform="translate(0,0)"></path>
<path d="M 1164.37 1251.18 C 1172.18 1251.04 1180.35 1253.82 1184.85 1260.5 C 1203.65 1288.12 1219.95 1317.84 1238.4 1345.7 C 1251.37 1365.28 1270.39 1393.24 1235.63 1403.78 C 1228.81 1403.35 1218.83 1400.78 1214.73 1394.6 C 1193.87 1363.12 1175.09 1330.2 1154.62 1298.4 C 1147.85 1287.9 1139.57 1276.41 1146.64 1263.72 C 1150.82 1256.24 1156.49 1253.55 1164.37 1251.18 z" fill="rgb(139,35,249)" transform="translate(0,0)"></path>
<path d="M 811.108 641.213 C 819.379 640.752 827.607 641.62 832.751 649.07 C 844.093 665.496 853.993 683.066 864.459 700.088 C 877.255 720.899 890.808 741.581 902.107 763.228 C 903.912 766.698 902.986 776.285 900.875 780.066 C 896.563 787.792 892.41 789.985 884.552 792.906 C 876.261 793.346 866.756 792.282 861.697 784.521 C 851.939 769.551 842.801 753.879 833.653 738.505 C 821.125 716.466 805.812 694.978 794.537 672.366 C 787.852 658.96 799.118 646.082 811.108 641.213 z" fill="rgb(139,35,249)" transform="translate(0,0)"></path>
<path d="M 1324.85 1000.3 C 1341.49 999.477 1447.81 998.144 1457.17 1002.43 C 1462.75 1004.98 1466.87 1009.76 1468.89 1015.51 C 1471.01 1021.56 1470.74 1029.25 1467.74 1034.97 C 1464.27 1041.58 1458.36 1044.82 1451.48 1046.89 C 1431.79 1046.88 1328.12 1049.65 1318.29 1044.52 C 1312.36 1041.42 1307.94 1036.04 1306.06 1029.62 C 1304.39 1023.69 1305.18 1017.34 1308.25 1011.99 C 1312.17 1005.11 1317.65 1002.44 1324.85 1000.3 z" fill="rgb(139,35,249)" transform="translate(0,0)"></path>
<path d="M 594.771 1000.29 C 598.431 1000 610.434 999.787 613.312 1000.15 C 633.927 1002.79 711.83 995.678 726.722 1002.48 C 732.78 1005.23 737.353 1010.47 739.267 1016.84 C 743.598 1031.21 735.284 1042.6 721.671 1046.84 C 705.08 1047.39 601.091 1048.83 591.201 1045.18 C 586.046 1043.28 581.548 1038.88 579.238 1033.93 C 576.438 1027.94 576.198 1019.65 578.757 1013.54 C 581.628 1006.68 588.357 1003.15 594.771 1000.29 z" fill="rgb(139,35,249)" transform="translate(0,0)"></path>
<metadata><recraft-signature>{"signed_by": "recraft", "signature_b64": "2YYffpOK5elt7UgQIdKCr+V9bBHIKb681U2Fykq3cK+OyiMYmzBJdaxl13j9g+CAV4ORvin/efEOTL60wUvdCA==", "signing_algo": "Ed25519", "generation_timestamp": 1783013131, "identifier": "95f3caa7-e9c9-4652-b855-13b34ecf49a8"}</recraft-signature></metadata></svg>