<svg xmlns="http://www.w3.org/2000/svg" height="2048" preserveAspectRatio="none" style="display: block;" version="1.1" viewBox="0 0 2048 2048" width="2048">
<defs>
	<linearGradient gradientUnits="userSpaceOnUse" id="Gradient1" x1="724.81" x2="781.466" y1="810.38" y2="1448.78">
		<stop class="stop0" offset="0" stop-color="rgb(228,37,215)" stop-opacity="1"></stop>
		<stop class="stop1" offset="1" stop-color="rgb(126,62,244)" stop-opacity="1"></stop>
	</linearGradient>
	<linearGradient gradientUnits="userSpaceOnUse" id="Gradient2" x1="1324.63" x2="1264.32" y1="810.301" y2="1448.31">
		<stop class="stop0" offset="0" stop-color="rgb(229,37,215)" stop-opacity="1"></stop>
		<stop class="stop1" offset="1" stop-color="rgb(126,63,244)" stop-opacity="1"></stop>
	</linearGradient>
</defs>
<path d="M 0 0 L 997.298 0 L 1047.62 0 L 2048 0 L 2048 1018.17 L 2048 1032.69 L 2048 2048 L 1051.63 2048 L 997.235 2048 L 0 2048 L 0 1043.65 L 0 1004.28 L 0 0 z" fill="rgb(4,3,13)" transform="translate(0,0)"></path>
<path d="M 1051.63 2048 C 1055.01 2047.19 1091.54 2045.18 1098.12 2044.59 C 1130.64 2041.88 1163.04 2037.8 1195.22 2032.36 C 1359.37 2003.58 1514.06 1935.31 1645.97 1833.44 C 1850.61 1676.68 1988.47 1448.38 2031.91 1194.28 C 2038.27 1157.14 2042.75 1119.7 2045.33 1082.1 C 2046.45 1066.56 2045.8 1047.53 2048 1032.69 L 2048 2048 L 1051.63 2048 z" fill="rgb(24,23,30)" transform="translate(0,0)"></path>
<path d="M 1047.62 0 L 2048 0 L 2048 1018.17 C 2046.4 1008.91 2046.11 980.066 2045.42 968.769 C 2043.62 940.261 2040.68 911.836 2036.6 883.562 C 2013.01 715.018 1947.65 555.048 1846.47 418.204 C 1693.41 211.082 1468.39 68.7259 1215.66 19.1336 C 1177.9 11.8543 1139.78 6.61402 1101.45 3.43563 C 1085.05 2.05784 1062.88 2.45579 1047.62 0 z" fill="rgb(24,23,30)" transform="translate(0,0)"></path>
<path d="M 0 1043.65 C 2.63725 1061.34 1.9361 1084.31 3.57782 1103.01 C 7.46662 1145.91 13.7522 1188.55 22.4051 1230.74 C 72.6834 1471.1 207.674 1685.38 402.762 1834.51 C 535.751 1936.69 691.685 2004.83 857.006 2033.02 C 888.097 2038.21 919.388 2042.1 950.8 2044.7 C 959.571 2045.45 990.854 2046.74 997.235 2048 L 0 2048 L 0 1043.65 z" fill="rgb(24,23,30)" transform="translate(0,0)"></path>
<path d="M 0 0 L 997.298 0 C 989.76 1.19456 981.715 0.898136 974.03 1.35412 C 958.927 2.26873 943.84 3.43518 928.776 4.853 C 889.254 8.59492 845.027 16.1964 805.834 24.6147 C 565.887 78.2019 352.97 215.727 205.449 412.408 C 102.836 549.265 36.0702 709.605 11.2245 878.843 C 7.2637 906.152 4.27268 933.592 2.25706 961.113 C 1.50081 972.353 1.62471 994.785 0 1004.28 L 0 0 z" fill="rgb(24,23,30)" transform="translate(0,0)"></path>
<path d="M 1086.81 828.007 L 1535.08 827.906 L 1535.11 1094 L 1535.09 1171.61 C 1535.07 1205.49 1536.61 1230.02 1528.54 1263.53 C 1518.12 1307.03 1495.93 1346.81 1464.38 1378.52 C 1450.42 1392.49 1434.89 1404.8 1418.12 1415.22 C 1340.1 1461.63 1248.85 1464.82 1169.44 1420.21 C 1164.65 1417.52 1154.34 1411.77 1150.87 1407.81 C 1141.48 1402.71 1128.1 1390.52 1120.43 1383.19 C 1079.31 1343.54 1050.63 1287.27 1045.74 1230.04 C 1043.6 1204.99 1044.38 1175.51 1044.2 1149.97 C 1058.24 1176.34 1072.39 1206.09 1086.16 1232.81 C 1107.27 1273.81 1114.61 1296.22 1146.57 1330.93 C 1149.4 1333.73 1151.47 1335.78 1154.01 1338.83 C 1162.45 1344.88 1171.07 1352.47 1180.05 1358.87 C 1206.79 1377.93 1227.81 1382 1257.62 1389.82 C 1284.79 1391.64 1296.12 1392.74 1323.63 1388.6 C 1321.17 1385.77 1313.14 1377.85 1311.76 1375.77 C 1304.32 1369.23 1293 1357.05 1285.82 1349.78 L 1236.84 1300.17 L 1191.92 1254.68 C 1184.83 1247.49 1173.13 1236.33 1166.89 1228.81 C 1152.7 1217.08 1132.66 1194.34 1119.04 1180.87 C 1105.8 1167.77 1090.59 1152.41 1078.29 1138.55 C 1104.75 1156.24 1130.53 1176.53 1156.39 1195.23 C 1160.96 1198.53 1166 1202.01 1170.27 1205.64 C 1184.22 1214.49 1201.07 1227.97 1214.89 1237.88 L 1324.04 1316.15 C 1330.14 1320.43 1348.45 1332.59 1353.05 1337.3 C 1364.64 1344.17 1374.88 1353.31 1387.58 1360.63 C 1397.6 1353.51 1407.02 1345.57 1415.73 1336.89 C 1465.79 1286.46 1468.3 1238.58 1468.15 1173.46 C 1455.03 1172.12 1436.87 1168.43 1423.51 1166.06 L 1352.51 1153.62 L 1110.78 1112.76 C 1109.54 1111.41 1109.37 1111.65 1110.49 1110.06 C 1160.17 1107.86 1210.07 1105.51 1259.71 1102.43 C 1329.41 1098.11 1398.47 1099.17 1468.27 1099.15 L 1468.34 885.446 C 1343.91 952.556 1216.04 1013.09 1085.26 1066.78 C 1144.59 1023.89 1204.29 981.501 1264.35 939.629 C 1291.61 920.875 1320.87 902.61 1347.5 884.032 L 1166.24 883.967 C 1129.58 936.165 1093.34 988.658 1057.52 1041.44 C 1065.12 1013.32 1074.39 982.404 1078.9 953.696 C 1085.08 914.449 1086.93 867.984 1086.81 828.007 z" fill="url(#Gradient2)" transform="translate(0,0)"></path>
<path d="M 1343 1435.12 L 1341.55 1436.15 C 1341.1 1437.85 1340.9 1439.48 1340.78 1441.23 C 1337.82 1441.86 1339.3 1441.86 1336.32 1440.6 C 1336.26 1434.52 1337.47 1441.26 1340.13 1436.1 L 1338.3 1433.65 C 1338.94 1432.36 1349.15 1426.97 1349.27 1426.98 C 1360.12 1427.99 1362.98 1418.32 1371.17 1415.65 C 1372.75 1416.29 1373.51 1416.56 1375.16 1417.01 C 1385.61 1407.1 1384.63 1414.17 1391.66 1409.92 C 1398.02 1406.08 1402.8 1398.01 1412.61 1397.92 C 1415.49 1399.91 1414.36 1398.58 1415.5 1402.51 C 1416.8 1399.56 1416.53 1398.85 1418.77 1397.22 L 1420.66 1398.69 L 1419.94 1400.63 C 1421.95 1402.25 1421.55 1402.02 1423.14 1404.17 L 1422.88 1405.89 L 1421.62 1405.29 C 1419.79 1408.23 1415.79 1409.75 1412.4 1411.65 C 1412.61 1412.13 1413.54 1414.35 1413.79 1414.7 L 1418.12 1415.22 C 1340.1 1461.63 1248.85 1464.82 1169.44 1420.21 C 1164.65 1417.52 1154.34 1411.77 1150.87 1407.81 C 1155.88 1407.87 1182.33 1425.79 1190.01 1428.1 C 1195.94 1429.88 1215.53 1440.6 1220.99 1439.33 L 1220.5 1438.38 C 1219.74 1436.88 1220.03 1437.48 1219.19 1435.54 L 1217.33 1436 C 1212.06 1433.89 1210.15 1430.65 1211.68 1425.03 L 1212.94 1423.72 C 1218.16 1418.23 1216.95 1412.45 1221.77 1410.2 C 1223.7 1413.41 1224.19 1416.28 1225.15 1419.9 C 1227.63 1419.78 1226.48 1420.03 1228.61 1419.23 L 1229.6 1419.84 L 1229.58 1420.94 C 1229.54 1424.54 1229.32 1425.29 1230.94 1428.57 C 1236.09 1431.73 1244.23 1430.86 1247.81 1433.6 C 1247.22 1436.91 1248.01 1435.93 1246.19 1437.96 L 1244.23 1437.79 C 1246.25 1439.37 1246.22 1439.4 1248.57 1440.38 L 1247.89 1443.75 L 1245.94 1442.21 L 1241.36 1443.7 L 1241.88 1443.64 L 1239.65 1444.51 C 1257.69 1452.95 1341.15 1450.02 1357.89 1439.33 C 1351.32 1435.69 1349.46 1441.33 1347.34 1432.67 L 1345.6 1432.11 C 1344.94 1432.87 1343.54 1434.36 1343 1435.12 z" fill="rgb(139,58,239)" transform="translate(0,0)"></path>
<path d="M 1324.04 1316.15 C 1330.14 1320.43 1348.45 1332.59 1353.05 1337.3 C 1347.24 1341.66 1359.49 1346.12 1352.54 1351.2 C 1351.43 1350.59 1350.45 1348.75 1349.87 1347.66 C 1349.73 1347.63 1349.59 1347.6 1349.46 1347.56 C 1345.69 1349.41 1343.38 1343.11 1341 1342.04 C 1340.04 1342.13 1340.29 1342.66 1339.51 1342.95 C 1338.83 1342.63 1337.83 1342.11 1337.09 1342.53 L 1337.08 1342.67 L 1337.15 1342.81 L 1336.82 1344.04 C 1337.87 1345.01 1339.26 1345.41 1340.16 1346.6 L 1340.12 1346.63 C 1336.84 1347 1335.19 1345.55 1333 1345.57 L 1332.94 1345.62 C 1330.84 1345.87 1325.81 1340.23 1324.81 1338.47 C 1326.89 1335.45 1333.34 1343.28 1334.76 1340.6 C 1334.21 1339.83 1328.95 1336.87 1328.14 1334.89 C 1327.48 1333.3 1321.23 1329.21 1321.49 1327.53 C 1322.22 1322.7 1315.22 1327.07 1322.51 1320.86 C 1322.35 1320.99 1323.76 1318.29 1323.34 1319.16 L 1323.68 1318.47 C 1324.11 1317.63 1324.03 1317.18 1324.04 1316.15 z" fill="rgb(139,58,239)" transform="translate(0,0)"></path>
<path d="M 1078.29 1138.55 C 1104.75 1156.24 1130.53 1176.53 1156.39 1195.23 C 1160.96 1198.53 1166 1202.01 1170.27 1205.64 C 1163.03 1205.4 1154.27 1194.79 1148.34 1191.65 C 1141.15 1187.84 1115.49 1165.5 1109.79 1163.71 C 1103.16 1165.23 1116.65 1174.69 1117.58 1176.15 C 1125.49 1188.48 1162.97 1217.68 1166.89 1228.81 C 1152.7 1217.08 1132.66 1194.34 1119.04 1180.87 C 1105.8 1167.77 1090.59 1152.41 1078.29 1138.55 z" fill="rgb(139,58,239)" transform="translate(0,0)"></path>
<path d="M 1311.76 1375.77 C 1311.76 1375.77 1312.83 1374.97 1312.8 1374.95 C 1318.58 1377.86 1315.09 1376.19 1318.17 1372.19 C 1318.51 1371.75 1320.04 1371.99 1320.81 1373.23 C 1320.52 1373.81 1320.12 1373.78 1319.56 1374.11 C 1315.87 1376.33 1321.41 1377.15 1322.96 1376.54 C 1323.13 1376.42 1323.3 1376.29 1323.47 1376.17 C 1326.68 1377.4 1321.56 1379.01 1326.66 1382.12 C 1328.96 1383.52 1330.04 1386.55 1329.93 1389.45 L 1328.83 1390.63 C 1324.21 1395.71 1325.96 1389.5 1326.13 1388.11 L 1325.54 1387.55 L 1325.46 1387.59 C 1325.49 1388.94 1325.5 1390.07 1324.02 1390.58 C 1322.24 1391.2 1323.57 1393.39 1322.77 1394.5 L 1322.79 1394.46 C 1314.14 1396.8 1321.04 1395.77 1318.83 1400.6 C 1318.19 1400.85 1318.63 1400.73 1317.46 1400.6 C 1316.63 1401.16 1315.38 1400.5 1314.52 1400.34 C 1313.88 1400.22 1313.82 1401.8 1313 1401.29 C 1312.04 1401.14 1310.24 1399.11 1309.16 1399.3 C 1308.77 1399.71 1308.38 1400.13 1307.99 1400.54 C 1306.93 1401.9 1306.37 1400.37 1305.5 1400.15 C 1304.7 1400.46 1305.05 1401.32 1304 1401.32 C 1301.1 1399.03 1299.93 1401.68 1298.08 1400.57 C 1297.45 1399.05 1299.08 1397.16 1299.09 1395.43 C 1299.1 1393.25 1303.67 1393.96 1304.49 1393.98 L 1308.57 1394.09 C 1309.5 1394.1 1312.86 1393.03 1313.65 1392.51 L 1313.67 1392.4 C 1311.99 1391.96 1307.24 1393.15 1304.53 1393.24 C 1293.55 1393.56 1282.46 1393.72 1271.47 1393.3 C 1266.66 1393.02 1261.42 1392.76 1257.62 1389.82 C 1284.79 1391.64 1296.12 1392.74 1323.63 1388.6 C 1321.17 1385.77 1313.14 1377.85 1311.76 1375.77 z" fill="rgb(139,58,239)" transform="translate(0,0)"></path>
<path d="M 1146.57 1330.93 C 1149.4 1333.73 1151.47 1335.78 1154.01 1338.83 C 1151.13 1337.89 1151.01 1337.63 1148.76 1336.4 C 1145.77 1334.77 1147.18 1346.41 1143.25 1341.71 C 1143.25 1341.68 1143.5 1340.03 1143.47 1339.97 C 1142.65 1338.28 1145.85 1337.27 1145.74 1336.45 C 1145.41 1334.25 1145.96 1332.89 1146.57 1330.93 z" fill="rgb(139,58,239)" transform="translate(0,0)"></path>
<path d="M 1329.93 1389.45 C 1330.36 1389.05 1330.47 1388.79 1330.93 1388.75 C 1331.3 1389.48 1331.27 1389.59 1331.45 1390.49 C 1330.79 1390.86 1331.05 1390.77 1330.63 1390.85 C 1330.08 1390.19 1330.28 1390.5 1329.93 1389.45 z" fill="rgb(139,58,239)" transform="translate(0,0)"></path>
<path d="M 1218.34 1393.47 C 1221.45 1392.74 1219.05 1395.25 1222.02 1396.95 C 1224.45 1398.33 1226.11 1396.12 1228.22 1399.71 C 1228.54 1400.25 1230.85 1398.1 1231.64 1398.33 C 1233.74 1401.74 1232.7 1405.67 1230.61 1408.64 L 1229.76 1410.05 C 1229.84 1410.48 1229.92 1410.9 1230 1411.33 L 1229.64 1411.73 L 1229.88 1412.53 C 1229.78 1412.56 1229.68 1412.58 1229.58 1412.61 C 1226.2 1407.41 1232.46 1406.35 1221.75 1406.29 C 1221.16 1406.28 1220.1 1401.97 1220.08 1400.97 C 1219.98 1396.41 1217.57 1398.55 1218.34 1393.47 z" fill="rgb(139,58,239)" transform="translate(0,0)"></path>
<path d="M 1230.01 1389.73 C 1232.6 1390.41 1233.15 1390.58 1235.93 1390.48 C 1235.94 1390.48 1238.97 1393.58 1239.2 1393.81 C 1241.48 1396.25 1241.04 1392.78 1243.39 1394.49 C 1245.28 1398.26 1243.81 1402.71 1238.82 1397.56 C 1238.73 1398.45 1238.64 1399.33 1238.56 1400.22 L 1237.76 1399.37 C 1228.3 1389.22 1231.71 1399.49 1228.47 1396.26 C 1228.31 1395.57 1228.53 1395.03 1228.75 1394.37 C 1225.65 1390.59 1226.78 1393.63 1225.11 1393.9 C 1222.45 1392.85 1223.07 1389.43 1225.39 1390.21 C 1227.72 1390.99 1227.58 1390.58 1230.01 1389.73 z" fill="rgb(139,58,239)" transform="translate(0,0)"></path>
<path d="M 1323.12 1411.61 C 1324.5 1411.63 1327.64 1410.92 1327.81 1412.54 C 1325.62 1417.38 1319.69 1417.02 1316.65 1417.75 C 1316.07 1418.07 1314.88 1418.74 1314.44 1417.93 C 1314.65 1410.96 1319.65 1415.83 1323.12 1411.61 z" fill="rgb(139,58,239)" transform="translate(0,0)"></path>
<path d="M 1296.13 1439.67 C 1297.54 1440.41 1301.24 1440.89 1301.65 1439.72 C 1300.96 1441.68 1303.22 1444.31 1300.89 1445.64 C 1297.16 1446.13 1288.26 1443.66 1296.13 1439.67 z" fill="rgb(139,58,239)" transform="translate(0,0)"></path>
<path d="M 1336.06 1395.55 C 1340.49 1399.86 1335.37 1402.12 1332.56 1404.72 C 1331.75 1404.75 1331.1 1404.95 1330.93 1403.99 C 1332.45 1400.32 1333.22 1404.74 1336.06 1395.55 z" fill="rgb(139,58,239)" transform="translate(0,0)"></path>
<path d="M 1140.32 1332.95 C 1144.19 1333.82 1145.99 1333.14 1143.35 1338.24 C 1138.5 1337.33 1138.02 1337.62 1140.32 1332.95 z" fill="rgb(139,58,239)" transform="translate(0,0)"></path>
<path d="M 1237.95 1400.55 C 1240.35 1402.8 1240.74 1403.43 1238.76 1406.25 L 1238.01 1407.38 C 1236.44 1404.77 1235.85 1404.73 1237.32 1401.93 L 1237.95 1400.55 z" fill="rgb(139,58,239)" transform="translate(0,0)"></path>
<path d="M 1135.87 1329.56 C 1137.79 1331.26 1139.96 1332.5 1136.8 1333.64 C 1136.41 1333.9 1136.02 1334.17 1135.63 1334.43 C 1134.77 1334.57 1135.1 1333.23 1135.2 1332.77 C 1135.34 1332.23 1135.47 1331.68 1135.6 1331.14 L 1135.87 1329.56 z" fill="rgb(139,58,239)" transform="translate(0,0)"></path>
<path d="M 1286.11 1444.53 C 1290.42 1443.26 1286.63 1445.63 1286.33 1445.76 C 1285.82 1445.75 1284.6 1445.99 1284.22 1445.38 C 1284.48 1444.61 1285.41 1444.75 1286.11 1444.53 z" fill="rgb(139,58,239)" transform="translate(0,0)"></path>
<path d="M 1345.7 1352.26 C 1345.92 1352.24 1346.15 1352.23 1346.37 1352.22 C 1346.32 1352.39 1346.27 1352.56 1346.21 1352.73 C 1346.07 1352.79 1345.94 1352.84 1345.8 1352.89 C 1345.65 1352.66 1345.71 1352.83 1345.7 1352.26 z" fill="rgb(139,58,239)" transform="translate(0,0)"></path>
<path d="M 1340.71 1349.17 C 1342.31 1348.69 1341.55 1348.52 1342.54 1350.04 C 1341.38 1349.95 1341.48 1349.99 1340.71 1349.17 z" fill="rgb(139,58,239)" transform="translate(0,0)"></path>
<path d="M 1246.32 1398.4 C 1246.73 1398.35 1247.18 1398.18 1247.53 1398.38 C 1247.47 1398.85 1247.03 1399.25 1246.74 1399.63 C 1246.11 1399.79 1245.81 1399.96 1245.48 1399.82 C 1245.68 1399.29 1245.97 1398.9 1246.32 1398.4 z" fill="rgb(139,58,239)" transform="translate(0,0)"></path>
<path d="M 1240.86 1424.39 C 1241.33 1424.63 1241.59 1424.65 1241.79 1425.02 C 1241.56 1425.3 1241.09 1425.66 1240.67 1425.94 C 1240.19 1425.71 1239.75 1425.65 1239.52 1425.24 C 1239.8 1424.79 1240.35 1424.65 1240.86 1424.39 z" fill="rgb(139,58,239)" transform="translate(0,0)"></path>
<path d="M 1274.99 1398.4 C 1275.51 1398.71 1275.35 1398.52 1275.58 1398.87 C 1275.49 1399.43 1275.59 1399.05 1275 1399.9 C 1274.81 1399.79 1274.62 1399.67 1274.43 1399.56 C 1274.54 1399.02 1274.6 1398.98 1274.99 1398.4 z" fill="rgb(139,58,239)" transform="translate(0,0)"></path>
<path d="M 1320.15 1332.39 C 1320.65 1332.75 1320.38 1332.93 1320.36 1333.63 C 1319.86 1332.8 1319.89 1333.2 1320.15 1332.39 z" fill="rgb(139,58,239)" transform="translate(0,0)"></path>
<path d="M 512.814 827.833 L 962.031 827.887 C 961.947 912.183 963.023 944.312 985.718 1025.23 L 986.138 1026.58 C 986.542 1027.83 987.638 1030.24 987.293 1031.44 C 986.31 1032.33 984.06 1028.35 983.696 1027.78 L 881.852 884.033 L 700.61 884.184 C 735.18 906.123 768.339 929.409 801.97 952.655 C 851.699 987.038 901.134 1021.84 950.273 1057.06 L 947.49 1059.4 C 870.111 1025.63 788.605 990.875 713.029 954.126 C 667.854 931.735 623.237 908.236 579.218 883.649 L 579.192 1098.12 C 678.351 1098.27 776.897 1097.56 875.971 1103.4 C 892.968 1104.4 937.689 1104.67 951.741 1107.31 C 939.883 1110.47 915.886 1113.77 902.965 1115.91 C 873.646 1120.71 844.357 1125.69 815.099 1130.84 L 663.807 1157.43 C 636.865 1162.16 606.295 1168.18 579.401 1171.86 C 579.345 1189.1 578.825 1210.26 580.387 1227.05 C 584.354 1268.7 602.777 1307.65 632.46 1337.14 C 641.272 1346.01 650.887 1354.05 661.183 1361.14 L 843.293 1229.67 L 915.439 1177.2 C 929.73 1166.85 947.194 1154.8 960.992 1144.03 L 963.359 1145.45 C 921.388 1188.44 879.115 1231.14 836.542 1273.54 C 798.607 1311.17 758.747 1349.97 722.072 1388.67 C 780.496 1396.26 830.922 1387.07 878.42 1350.42 C 895.499 1337.31 910.407 1321.6 922.597 1303.85 C 936.811 1283.42 948.38 1257.51 959.505 1234.9 L 1001.59 1150.31 C 1005.78 1138.34 1004.13 1169.75 1004.13 1170.33 C 1004.14 1190.84 1004.56 1211.65 1002.28 1232.01 C 995.596 1288.32 970.057 1340.7 929.818 1380.64 C 884.324 1426.21 822.644 1451.93 758.252 1452.17 C 693.302 1451.81 631.099 1425.92 585.069 1380.1 C 553.152 1348.42 530.537 1308.59 519.688 1264.95 C 511.197 1230.27 512.83 1201.32 512.833 1166.26 L 512.875 1085.36 L 512.814 827.833 z" fill="url(#Gradient1)" transform="translate(0,0)"></path>
<path d="M 1001.59 1150.31 C 1005.78 1138.34 1004.13 1169.75 1004.13 1170.33 C 997.838 1159.68 1005.53 1159.58 1001.59 1150.31 z" fill="rgb(139,58,239)" transform="translate(0,0)"></path>
<path d="M 985.718 1025.23 L 986.138 1026.58 C 986.542 1027.83 987.638 1030.24 987.293 1031.44 C 986.31 1032.33 984.06 1028.35 983.696 1027.78 C 984.573 1026.78 985.028 1026.34 985.718 1025.23 z" fill="rgb(212,40,216)" transform="translate(0,0)"></path>
<path d="M 512.862 592.127 L 961.137 592.274 L 961.211 665.85 L 512.878 665.931 L 512.862 592.127 z" fill="rgb(247,30,169)" transform="translate(0,0)"></path>
<path d="M 1087.51 592.155 L 1535.04 592.239 L 1535.05 665.958 L 1087.58 665.946 L 1087.51 592.155 z" fill="rgb(247,30,169)" transform="translate(0,0)"></path>
<path d="M 1087.22 709.187 L 1535.04 709.186 L 1534.97 781.798 L 1087.3 781.745 L 1087.22 709.187 z" fill="rgb(212,40,216)" transform="translate(0,0)"></path>
<path d="M 512.8 709.137 L 961.94 709.388 C 961.854 727.365 963.286 765.743 961.63 781.769 L 512.894 781.712 L 512.8 709.137 z" fill="rgb(212,40,216)" transform="translate(0,0)"></path>
<path d="M 950.273 1057.06 L 962.2 1066.01 C 957.046 1063.87 952.536 1061.66 947.49 1059.4 L 950.273 1057.06 z" fill="rgb(212,40,216)" transform="translate(0,0)"></path>
<path d="M 1097.44 1110.83 C 1102.16 1110.44 1105.7 1109.81 1110.49 1110.06 C 1109.37 1111.65 1109.54 1111.41 1110.78 1112.76 C 1107.4 1112.53 1100.97 1111.39 1097.44 1110.83 z" fill="rgb(104,29,157)" transform="translate(0,0)"></path>
<path d="M 960.992 1144.03 C 961.955 1143.29 967.181 1138.74 968.362 1139.61 C 968.453 1140.81 964.247 1144.55 963.359 1145.45 L 960.992 1144.03 z" fill="rgb(139,58,239)" transform="translate(0,0)"></path>
<metadata><recraft-signature>{"signed_by": "recraft", "signature_b64": "tbM0M0nOZXmdzqp5Vnuxo6EsuEqws0uIf6rUnATQZT+FFZxtLnBghL/waoOAfMI5D78+2XWDq95mm1mp3j8sDA==", "signing_algo": "Ed25519", "generation_timestamp": 1783013142, "identifier": "ba2901c6-6ea0-4984-9a20-ab22b46ab650"}</recraft-signature></metadata></svg>