<svg xmlns="http://www.w3.org/2000/svg" height="2048" preserveAspectRatio="none" style="display: block;" version="1.1" viewBox="0 0 2048 2048" width="2048">
<defs>
	<linearGradient gradientUnits="userSpaceOnUse" id="Gradient1" x1="1037.4" x2="1010.6" y1="1710.93" y2="337.949">
		<stop class="stop0" offset="0" stop-color="rgb(40,154,130)" stop-opacity="1"></stop>
		<stop class="stop1" offset="1" stop-color="rgb(9,255,156)" stop-opacity="1"></stop>
	</linearGradient>
</defs>
<path d="M 0 0 L 999.341 0 L 1042.87 0 L 2048 0 L 2048 1004.3 L 2048 1050.53 L 2048 2048 L 1050.46 2048 L 1002.42 2048 L 0 2048 L 0 1055.84 L 0 994.377 L 0 0 z" fill="rgb(0,0,5)" transform="translate(0,0)"></path>
<path d="M 1042.87 0 L 2048 0 L 2048 1004.3 C 2045.88 994.816 2045.23 959.487 2044.05 947.419 C 2041.6 922.326 2038.99 898.41 2034.96 873.395 C 2010.28 716.504 1949.87 567.386 1858.38 437.559 C 1709.6 225.438 1486.07 77.4587 1232.69 23.3364 C 1196.47 15.6688 1152.37 8.00268 1115.31 4.88667 C 1100.6 3.65663 1085.88 2.69087 1071.14 1.98988 C 1062.67 1.56686 1050.89 1.61264 1042.87 0 z" fill="rgb(13,9,16)" transform="translate(0,0)"></path>
<path d="M 1050.46 2048 C 1055.06 2046.72 1098.98 2044.02 1108.02 2043.3 C 1136.47 2041.09 1164.79 2037.51 1192.9 2032.58 C 1357.1 2004.06 1511.95 1936.17 1644.17 1834.72 C 1840.91 1683.24 1976.55 1466.01 2026.29 1222.75 C 2033.95 1185.93 2039.57 1148.7 2043.12 1111.26 C 2044.91 1092.63 2045.65 1068.19 2048 1050.53 L 2048 2048 L 1050.46 2048 z" fill="rgb(13,9,16)" transform="translate(0,0)"></path>
<path d="M 0 0 L 999.341 0 C 977.955 2.56624 952.183 3.25405 930.054 5.21616 C 898.545 8.26475 867.206 12.8664 836.151 19.0044 C 592.302 65.9593 373.685 199.577 220.686 395.174 C 116.509 528.043 46.3583 684.344 16.332 850.493 C 11.1843 879.886 6.9529 906.531 4.45592 936.214 C 3.45526 948.22 2.54505 960.233 1.72535 972.253 C 1.37076 977.679 0.995946 989.593 0 994.377 L 0 0 z" fill="rgb(13,9,16)" transform="translate(0,0)"></path>
<path d="M 0 1055.84 L 0.143586 1056.9 C 1.03702 1063.86 1.22809 1070.91 1.67043 1077.88 C 16.7692 1315.86 114.186 1545.72 277.512 1719.8 C 311.813 1756.36 349.325 1792.61 389.087 1823.68 C 525.484 1931.65 686.777 2003.7 858.213 2033.24 C 887.936 2038.34 917.889 2041.99 947.966 2044.19 C 956.139 2044.79 997.353 2046.8 1002.42 2048 L 0 2048 L 0 1055.84 z" fill="rgb(13,9,16)" transform="translate(0,0)"></path>
<path d="M 1010.99 336.423 C 1016.28 335.821 1023.47 335.917 1028.93 336.037 C 1165.12 339.028 1275.73 444.893 1287.45 580.182 C 1289.33 601.922 1288.45 625.998 1288.55 647.971 C 1288.85 679.29 1288.91 710.612 1288.72 741.932 C 1324.59 765.1 1367.58 797.324 1403 822.476 L 1455.59 859.685 C 1466.57 867.374 1477.45 874.923 1488.31 882.912 C 1506.95 896.636 1514.28 918.361 1511.42 940.828 C 1507.7 969.909 1485.82 982.017 1464.01 997.291 C 1451.02 1006.39 1437.56 1015.47 1424.75 1025.05 C 1451.35 1045.5 1497.83 1067.25 1509.18 1099.13 C 1517.47 1122.4 1510.14 1152 1489.81 1167.01 C 1470.35 1181.38 1449.87 1195.39 1429.85 1209.5 L 1288.81 1308.9 L 1288.98 1401.96 C 1289.01 1421.53 1289.62 1444.8 1288.02 1464.11 C 1283.45 1522.9 1260.13 1578.67 1221.49 1623.21 C 1175.65 1675.79 1110.84 1708.06 1041.25 1712.95 C 966.343 1717.22 894.081 1690.54 840.814 1637.24 C 796.104 1593.29 768.271 1535.03 762.182 1472.64 C 760.047 1451.23 760.573 1424.03 760.608 1402.11 L 760.747 1308.49 C 731.216 1288.67 700.226 1265.77 670.872 1245.19 C 647.174 1228.71 623.598 1212.06 600.146 1195.23 C 584.118 1183.85 558.915 1170.19 547.46 1154.69 C 538.442 1142.49 535.328 1123.75 537.642 1109 C 539.043 1100.07 542.915 1089.32 548.424 1082.11 C 558.344 1069.12 608.611 1036.58 625.001 1024.89 C 601.577 1007.89 568.865 988.361 549.131 968.367 C 532.528 951.545 533.291 907.412 551.077 891.135 C 568.564 875.133 593.035 859.354 613.213 845.095 L 700.478 783.218 C 720.289 769.233 741.308 754.982 760.527 740.347 C 761.179 706.945 760.518 673.241 760.77 639.816 C 760.933 618.144 760.132 596.273 762.207 574.708 C 767.728 519.508 790.169 467.361 826.46 425.404 C 874.465 369.975 938.818 341.764 1010.99 336.423 z" fill="url(#Gradient1)" transform="translate(0,0)"></path>
<path d="M 1012.72 410.427 C 1013.08 410.365 1013.45 410.302 1013.81 410.239 C 1057.77 407.381 1102.9 422.293 1137.56 447.92 C 1179.42 478.876 1206.72 525.687 1213.03 577.37 C 1215.32 596.096 1214.71 623.684 1214.65 643.082 L 1214.62 723.11 C 1214.64 734.978 1211.14 777.931 1220.18 784.788 C 1286.93 835.406 1358.06 881.002 1425.9 930.221 C 1406.84 945.189 1378.18 964.11 1357.8 978.207 C 1340.58 966.862 1321.43 952.767 1304.3 940.748 L 1199.72 866.882 C 1181.96 854.21 1159.08 840.18 1143.67 825.556 C 1137.94 820.119 1140.09 771.655 1140.08 760.749 L 1140.05 643.701 C 1140.08 625.435 1141.11 599.938 1137.84 582.719 C 1134.74 565.853 1127.9 549.895 1117.83 536.016 C 1098.13 508.735 1071.05 493.943 1038.27 488.711 C 1008.86 485.93 983.523 491.75 959.066 508.444 C 901.778 547.55 909.252 606.111 909.227 665.697 L 909.16 770.137 C 909.16 784.954 910.19 802.447 908.583 816.907 C 908.01 822.065 904.747 827.227 900.669 830.441 C 880.369 846.44 857.401 861.719 836.306 876.668 L 692.179 978.211 C 669.478 962.31 646.054 945.443 623.052 930.138 C 644.662 915.678 828.509 788.607 832.586 781.737 C 838.039 772.547 835.531 754.376 835.451 743.891 L 835.341 653.132 C 835.035 582.951 832.26 534.252 881.833 475.166 C 914.167 436.627 963.047 414.468 1012.72 410.427 z" fill="rgb(0,0,5)" transform="translate(0,0)"></path>
<path d="M 1358.02 1070.36 C 1380.83 1086.93 1403.91 1103.15 1427.22 1119 C 1413.55 1130.05 1384.04 1149.18 1368.56 1159.92 C 1320.36 1194.83 1269.91 1227.16 1222.01 1262.51 C 1219.1 1264.66 1216.93 1268.23 1215.11 1271.29 C 1213.83 1285.22 1214.37 1307.69 1214.38 1322.19 L 1214.58 1408.23 C 1214.72 1465.13 1214.23 1507.08 1179.15 1557.14 C 1150.13 1598.42 1105.83 1626.39 1056.09 1634.86 C 1005.82 1643.58 954.155 1631.55 912.905 1601.51 C 870.624 1570.58 843.177 1523.4 837.184 1471.36 C 835.023 1452.7 835.747 1428.71 835.734 1409.51 L 835.7 1329.26 C 835.697 1311.23 836.325 1291.97 834.947 1274.14 C 834.095 1263.12 812.382 1251.08 803.487 1244.88 L 756.853 1212.53 L 623.45 1119.52 C 645.651 1103.11 669.427 1087.45 691.991 1070.91 C 700.06 1075.49 714.049 1085.9 722.052 1091.53 L 777.235 1130.46 C 815.301 1157.4 854.731 1183.04 891.992 1211.03 C 896.873 1214.69 903.732 1219.65 906.979 1224.83 C 914.673 1237.13 904.108 1432.24 912.007 1469.5 C 915.633 1486.38 923.052 1502.21 933.702 1515.79 C 952.276 1539.66 979.503 1555.25 1009.49 1559.18 C 1040.09 1563.15 1071.01 1554.67 1095.3 1535.65 C 1114.2 1520.84 1127.97 1500.47 1134.65 1477.41 C 1142.74 1450.09 1140.14 1405.26 1140.12 1375.11 L 1140.18 1274.08 C 1140.19 1263.36 1137.34 1227.67 1145.54 1220.81 C 1164.21 1205.23 1186.29 1191.07 1206.35 1177.08 L 1295.78 1114.33 C 1316.33 1099.98 1338.15 1085.39 1358.02 1070.36 z" fill="rgb(0,0,5)" transform="translate(0,0)"></path>
<path d="M 1020.18 563.248 C 1036.88 562.018 1056.86 571.412 1061.67 587.204 C 1067.53 606.423 1065.19 639.758 1065.26 659.865 L 1065.51 770.769 L 1065.63 1059.72 L 1065.61 1311.71 L 1065.46 1397.6 C 1065.4 1421.71 1070.8 1457.75 1050.51 1474.09 C 1044.72 1478.74 1039.79 1480.76 1033.01 1483.14 C 1013.24 1485.98 996.811 1477.9 987.612 1459.77 C 981.954 1448.62 983.841 1438.3 983.921 1425.86 L 983.943 1380.14 L 983.938 1190.64 L 983.945 797.451 L 983.884 667.814 C 983.873 644.914 983.766 621.902 983.993 599.008 C 984.047 593.643 987.232 585.453 990.304 581.099 C 998.08 570.08 1007.45 565.589 1020.18 563.248 z" fill="rgb(0,0,5)" transform="translate(0,0)"></path>
<path d="M 1140.21 919.299 C 1144.71 921.359 1149.23 924.838 1153.31 927.745 C 1199.27 960.446 1246.08 992.169 1291.78 1025.2 L 1228.64 1070.11 C 1200.4 1089.56 1168.51 1113.89 1140.15 1131.82 L 1140.21 919.299 z" fill="rgb(0,0,5)" transform="translate(0,0)"></path>
<path d="M 907.745 920.916 C 908.983 923.461 908.567 1110.45 908.714 1130.89 C 880.275 1110.3 850.295 1089.85 821.507 1069.54 L 757.805 1025.08 L 907.745 920.916 z" fill="rgb(0,0,5)" transform="translate(0,0)"></path>
<metadata><recraft-signature>{"signed_by": "recraft", "signature_b64": "dw4XJGuCwhLWROsYcumvCK8mfLJhIiKckNvCK1eNYYIvv0XqrVqttMVBaUs5jEIVBjr/iXA84hZJ7bIiIX7hDQ==", "signing_algo": "Ed25519", "generation_timestamp": 1783013133, "identifier": "d22fc6d1-745d-4d12-b6d8-58a2e884d3f3"}</recraft-signature></metadata></svg>