<svg xmlns="http://www.w3.org/2000/svg" width="512" height="512" viewBox="0 0 512 512">
  <defs>
    <radialGradient id="bg" cx="34%" cy="28%" r="85%">
      <stop offset="0%" stop-color="#F0743F"/>
      <stop offset="55%" stop-color="#D24E2B"/>
      <stop offset="100%" stop-color="#B23E20"/>
    </radialGradient>
  </defs>
  <rect width="512" height="512" rx="0" fill="url(#bg)"/>
  <!-- seal art, scaled from the 100x100 viewBox into a centered safe zone -->
  <g transform="translate(106,106) scale(3.0)" fill="none" stroke="#F7F2E9" stroke-linecap="round">
    <circle cx="50" cy="50" r="46" stroke-width="2.4"/>
    <circle cx="50" cy="50" r="38" stroke-width="1.1" stroke-dasharray="3 4"/>
    <path d="M50 22 C36 22 30 33 30 44 C30 58 40 64 40 72 M50 22 C64 22 70 33 70 44 C70 58 60 64 60 72 M44 50 C44 44 46 40 50 40 C54 40 56 44 56 50 C56 58 50 62 50 70" stroke-width="2.6"/>
  </g>
</svg>
