<svg xmlns="http://www.w3.org/2000/svg" height="2048" preserveAspectRatio="none" style="display: block;" version="1.1" viewBox="0 0 2048 2048" width="2048">
<defs>
	<linearGradient gradientUnits="userSpaceOnUse" id="Gradient1" x1="688.871" x2="802.814" y1="1252.2" y2="597.233">
		<stop class="stop0" offset="0" stop-color="rgb(249,167,86)" stop-opacity="1"></stop>
		<stop class="stop1" offset="1" stop-color="rgb(251,218,154)" stop-opacity="1"></stop>
	</linearGradient>
	<linearGradient gradientUnits="userSpaceOnUse" id="Gradient2" x1="1330.5" x2="1355.84" y1="1224.25" y2="583.864">
		<stop class="stop0" offset="0" stop-color="rgb(249,178,98)" stop-opacity="1"></stop>
		<stop class="stop1" offset="1" stop-color="rgb(251,220,160)" stop-opacity="1"></stop>
	</linearGradient>
	<linearGradient gradientUnits="userSpaceOnUse" id="Gradient3" x1="1000.52" x2="1114.37" y1="1591.58" y2="347.539">
		<stop class="stop0" offset="0" stop-color="rgb(250,139,61)" stop-opacity="1"></stop>
		<stop class="stop1" offset="1" stop-color="rgb(251,237,182)" stop-opacity="1"></stop>
	</linearGradient>
</defs>
<path d="M 0 0 L 998.348 0 L 1048.57 0 L 2048 0 L 2048 987.463 L 2048 1053.54 L 2048 2048 L 1056.54 2048 L 995.091 2048 L 0 2048 L 0 1058.62 L 0 986.486 L 0 0 z" fill="rgb(1,9,15)" transform="translate(0,0)"></path>
<path d="M 1056.54 2048 C 1062.32 2046.71 1089.87 2046.04 1098.82 2045.27 C 1131.28 2042.24 1163.65 2038.24 1195.88 2033.28 C 1349.7 2007.38 1495.47 1946.38 1621.9 1855.02 C 1830.39 1705.11 1974.93 1482.33 2026.86 1230.84 C 2034.85 1192.09 2040.53 1152.91 2043.89 1113.5 C 2044.89 1101.83 2045.69 1090.16 2046.31 1078.47 C 2046.7 1070.55 2046.58 1061.26 2048 1053.54 L 2048 2048 L 1056.54 2048 z" fill="rgb(19,24,32)" transform="translate(0,0)"></path>
<path d="M 1048.57 0 L 2048 0 L 2048 987.463 C 2047.09 983.464 2045.48 951.34 2044.92 944.869 C 2042.57 914.826 2038.91 884.901 2033.93 855.181 C 2008.18 700.557 1947.2 553.93 1855.71 426.641 C 1681.08 187.329 1413.75 26.834 1115.87 4.72693 C 1101.89 3.69755 1087.9 2.74205 1073.9 1.86047 C 1065.83 1.3743 1056.43 1.38186 1048.57 0 z" fill="rgb(19,24,32)" transform="translate(0,0)"></path>
<path d="M 0 1058.62 C 1.55056 1067.31 1.41799 1077.96 1.83381 1086.89 C 2.43352 1098.6 3.28641 1110.3 4.39187 1121.97 C 7.59848 1157.51 14.6233 1201.52 22.0024 1236.39 C 74.2007 1483.04 215.674 1701.72 419.259 1850.43 C 549.663 1946.28 701.148 2009.46 861.01 2034.67 C 887.428 2038.95 913.093 2041.82 939.608 2044.57 C 949.664 2045.62 988.729 2046.45 995.091 2048 L 0 2048 L 0 1058.62 z" fill="rgb(19,24,32)" transform="translate(0,0)"></path>
<path d="M 0 0 L 998.348 0 C 978.402 3.66177 948.694 3.18155 927.424 5.04861 C 886.217 9.01621 845.265 15.2901 804.761 23.8406 C 557.958 76.8354 339.806 220.005 192.982 425.341 C 105.401 547.231 39.4208 697.838 15.3564 846.518 C 10.2024 878.011 6.04417 909.66 2.888 941.416 C 1.83508 952.586 1.51095 978.382 0 986.486 L 0 0 z" fill="rgb(19,24,32)" transform="translate(0,0)"></path>
<path d="M 1022.57 338.414 C 1034.98 338.099 1049.99 341.446 1061.39 346.239 C 1085.97 356.584 1105.33 376.408 1115.09 401.222 C 1124.7 425.784 1124.24 453.138 1113.84 477.37 C 1102.06 504.493 1082.11 521.165 1055.12 531.759 L 1055.01 815.506 C 1096.02 773.362 1142.04 730.107 1181.83 687.795 L 1181.67 587.52 C 1181.64 572.129 1180.78 552.692 1182.6 537.624 C 1184.95 524.048 1200.57 511.687 1213.99 512.455 C 1252.41 514.653 1245.83 556.362 1245.74 582.017 L 1245.75 641.669 C 1245.77 659.998 1248.64 697.908 1241.85 713.967 C 1237.29 724.765 1076.65 885.483 1055.49 906.705 C 1054.86 974.748 1055.78 1044.19 1055.77 1112.36 L 1191.16 1249.85 C 1205.8 1264.66 1224.73 1285.98 1240.68 1298.47 C 1247.78 1304.03 1297.09 1302.23 1308.64 1302.2 L 1409.81 1302.01 C 1423.05 1301.99 1440 1300.7 1452.69 1303.11 C 1484.45 1309.15 1484.04 1357.64 1455.01 1364.37 C 1441.13 1367.58 1413.34 1365.7 1398.08 1365.57 C 1371.52 1365.3 1344.95 1365.23 1318.38 1365.34 C 1328.76 1378.09 1343.8 1401.65 1354.66 1413.32 C 1385.27 1446.26 1355 1489.86 1317.59 1467.9 C 1311.82 1464.51 1301.53 1450.26 1296.61 1443.93 C 1283.78 1427.43 1271.07 1410.82 1258.48 1394.13 C 1240.16 1369.98 1243.33 1368.65 1214.05 1357.85 C 1189.7 1348.86 1160.63 1315.17 1142.6 1296.73 C 1113.76 1266.83 1084.67 1237.17 1055.33 1207.76 L 1055.48 1324.25 L 1169.71 1440.08 L 1205.32 1476.08 C 1210.87 1481.7 1221.81 1492.31 1226.3 1498.21 C 1230.46 1503.59 1232.93 1510.08 1233.42 1516.87 C 1234.02 1525.77 1231.12 1533.86 1224.96 1540.32 C 1219.06 1546.62 1210.81 1550.19 1202.17 1550.16 C 1184.32 1550.15 1174.67 1536.56 1163.02 1525.12 C 1155.77 1518 1148.71 1510.58 1141.58 1503.33 L 1055.51 1415.74 C 1055.8 1437.63 1057.92 1565.99 1052.89 1577.67 C 1048.94 1586.84 1041.07 1591.61 1032.17 1595.05 C 1015.71 1599.24 994.559 1589.48 991.961 1572.98 C 989.495 1557.31 990.633 1534.95 990.63 1518.86 L 990.614 1415.88 C 968.252 1440.67 940.702 1466.11 917.353 1490.88 C 899.231 1508.43 882.364 1528.77 862.871 1544.66 C 851.085 1553.07 833.271 1552.63 823.141 1541.5 C 798.491 1514.4 822.288 1495.55 840.191 1477.24 L 878.622 1438.15 C 915.893 1400.33 953.195 1361.36 990.714 1323.97 C 990.703 1285.99 991.217 1246.84 990.404 1208.95 C 945.205 1252.18 903.364 1300.92 857.951 1344.1 C 854.666 1347.22 838.703 1357.09 834.526 1358.19 C 809.228 1364.85 804.194 1375.76 789.08 1395.12 L 753.121 1441.22 C 746.056 1450.28 738.801 1460.43 730.169 1467.71 C 704.805 1490.53 665.655 1456.19 682.396 1428.55 C 695.082 1407.61 713.435 1385.44 728.235 1365.81 L 643.635 1366.01 C 633.514 1366.05 606.929 1366.69 598.79 1365.29 C 593.423 1364.4 588.384 1362.11 584.179 1358.66 C 570.376 1347.23 568.469 1325.46 581.008 1312.32 C 591.13 1301.72 600.991 1301.53 614.595 1301.58 C 671.971 1301.8 729.307 1301.81 786.686 1302.07 C 792.44 1302.1 802.706 1301.78 808.051 1298.49 C 822.117 1285.38 835.148 1270.87 848.703 1257.12 L 989.971 1113.49 C 988.887 1045.14 989.867 974.18 989.886 905.68 L 864.953 779.384 C 848.532 762.737 832.01 746.137 815.896 729.213 C 807.825 720.316 802.207 715.106 802.011 702.377 C 801.279 654.332 801.661 606.177 801.391 558.118 C 801.319 545.219 800.615 533.139 809.66 522.992 C 822.692 508.37 843.373 508.945 856.559 522.849 C 860.728 527.223 863.542 532.709 864.663 538.646 C 866.672 549.409 865.655 581.968 865.525 594.491 L 864.927 688.281 C 906.41 728.926 948.523 775.019 990.674 814.421 L 990.783 530.957 C 979.115 526.794 968.329 520.487 958.978 512.361 C 939.155 494.862 927.169 470.151 925.699 443.75 C 923.894 417.453 932.739 391.535 950.245 371.829 C 969.992 349.619 993.483 340.145 1022.57 338.414 z" fill="url(#Gradient3)" transform="translate(0,0)"></path>
<path d="M 1013.01 404.372 C 1012.71 403.946 1012.4 403.521 1012.09 403.095 C 1012.12 402.224 1013.75 401.985 1014.73 401.806 C 1016.59 401.465 1016.98 400.647 1018.32 399.739 C 1021.12 401.17 1019.59 397.796 1020.85 397.222 C 1024.39 395.604 1030.29 395.255 1031.46 399.774 C 1032.02 401.98 1033.96 398.319 1035.99 402.694 L 1035.95 402.664 C 1036.01 402.48 1036.3 400.881 1036.71 400.643 C 1037.44 400.877 1042.02 407.382 1042.62 408.562 C 1056.19 417.541 1061.74 434.727 1055.96 449.944 C 1050.19 465.162 1034.65 474.35 1018.53 472.069 C 1002.42 469.789 990.034 456.648 988.712 440.427 C 987.389 424.206 997.482 409.233 1013.01 404.372 z" fill="rgb(1,9,15)" transform="translate(0,0)"></path>
<path d="M 1013.01 404.372 C 1012.71 403.946 1012.4 403.521 1012.09 403.095 C 1012.12 402.224 1013.75 401.985 1014.73 401.806 C 1016.59 401.465 1016.98 400.647 1018.32 399.739 C 1021.12 401.17 1019.59 397.796 1020.85 397.222 C 1024.39 395.604 1030.29 395.255 1031.46 399.774 C 1032.02 401.98 1033.96 398.319 1035.99 402.694 L 1035.95 402.664 C 1036.01 402.48 1036.3 400.881 1036.71 400.643 C 1037.44 400.877 1042.02 407.382 1042.62 408.562 C 1033.88 402.783 1023.01 401.244 1013.01 404.372 z" fill="rgb(252,225,181)" transform="translate(0,0)"></path>
<path d="M 1323.2 582.274 C 1366.99 577.445 1362.12 616.12 1362.31 645.168 C 1362.56 671.44 1362.67 697.712 1362.63 723.985 C 1371.73 716.479 1407.9 685.956 1414.97 682.086 C 1419.15 679.738 1423.82 678.377 1428.61 678.108 C 1437.15 677.686 1445.54 681.37 1451.6 687.298 C 1458.02 693.562 1461.65 702.141 1461.69 711.11 C 1461.74 718.606 1459.06 725.864 1454.14 731.519 C 1447.57 739.197 1410.49 768.718 1400.75 776.852 C 1362.41 808.925 1323.88 840.786 1285.19 872.434 C 1261.36 892.006 1234.64 912.987 1212.69 934.334 C 1189.73 956.666 1176.81 987.916 1177.24 1019.99 C 1177.85 1065.38 1196.43 1097.11 1228.34 1128.19 C 1265.48 1164.35 1293.52 1161.69 1340.93 1161.07 L 1340.89 1107.91 C 1294.54 1093.59 1267.36 1046.53 1273.9 999.084 C 1277.44 973.015 1291.35 949.477 1312.48 933.803 C 1358.76 899.633 1420.81 912.17 1454.2 958.013 C 1459.67 966.254 1463.43 972.762 1466.81 982.186 C 1475.56 1006.86 1473.97 1034.02 1462.41 1057.51 C 1451.22 1080.49 1431.18 1099.43 1406.95 1107.95 L 1407 1161.46 C 1434.98 1161.82 1463.17 1161.03 1491.06 1161.57 C 1509.66 1161.93 1534.86 1157.42 1548.54 1171.82 C 1567.07 1191.33 1554.44 1223.18 1527.67 1225.57 C 1518.47 1226.39 1509.85 1225.79 1500.67 1225.78 L 1447.65 1225.89 L 1356.14 1225.88 C 1292.4 1225.86 1240.59 1227.54 1191.31 1180.57 C 1180.68 1170.45 1171.52 1163.13 1161.37 1151.49 C 1125.94 1110.87 1110.18 1057.85 1114.49 1004.39 C 1121.31 923.653 1166.92 885.342 1224.6 838.415 C 1249.74 818.207 1274.62 797.681 1299.25 776.842 C 1299.35 752.345 1296.44 612.147 1301.8 600.142 C 1306.03 590.662 1313.9 585.837 1323.2 582.274 z" fill="url(#Gradient2)" transform="translate(0,0)"></path>
<path d="M 1369.04 979.557 C 1388.13 977.613 1405.21 991.454 1407.26 1010.53 C 1409.31 1029.61 1395.57 1046.77 1376.5 1048.93 C 1357.28 1051.1 1339.95 1037.23 1337.89 1017.99 C 1335.82 998.76 1349.79 981.516 1369.04 979.557 z" fill="rgb(1,9,15)" transform="translate(0,0)"></path>
<path d="M 711.098 582.24 C 713.244 581.996 715.398 581.827 717.557 581.733 C 726.344 581.425 735.138 584.974 741.444 591.178 C 749.862 599.314 750.515 611.526 750.568 622.547 C 750.638 636.963 750.559 651.438 750.57 665.882 L 750.736 779.604 C 768.106 793.833 785.821 808.306 803.157 822.501 C 867.067 874.829 926.417 915.139 932.701 1004.83 C 936.785 1059.71 918.609 1113.91 882.269 1155.23 C 847.747 1194.52 802.435 1223.01 749.405 1224.87 C 732.127 1225.48 714.686 1225.46 697.398 1225.55 L 599.753 1225.71 L 553.811 1225.76 C 543.031 1225.83 531.463 1226.39 520.804 1225.09 C 505.279 1223.2 493.293 1210.15 493.251 1194.37 C 493.22 1185.41 496.776 1176.8 503.125 1170.47 C 507.196 1166.36 512.373 1163.52 518.028 1162.29 C 525.607 1160.67 552.224 1161.24 560.878 1161.26 L 640.036 1161.44 L 640.098 1107.92 C 581.122 1083.92 558.47 1019.49 589.353 963.664 C 600.989 943.942 618.997 928.772 640.408 920.654 C 665.605 911.171 693.318 912.953 717.675 924.094 C 741.978 935.211 760.723 955.724 769.61 980.929 C 778.419 1005.27 777.116 1032.13 765.993 1055.5 C 753.418 1082.01 733.069 1099.07 705.779 1108.88 L 705.214 1161.63 C 722.095 1161.75 747.069 1163.15 762.753 1159.61 C 821.257 1146.4 869.349 1083.37 869.543 1024 C 869.729 966.895 844.024 938.508 802.088 904.546 C 783.576 889.553 765.354 874.39 747.1 859.463 L 630.269 763.054 C 615.847 751.294 589.873 734.377 586.033 716.595 C 580.812 692.417 608.509 668.022 630.939 681.901 C 650.556 694.039 669.225 710.468 687.278 724.819 C 687.115 702.233 683.941 614.664 690.078 600.368 C 694.092 591.02 702.065 585.945 711.098 582.24 z" fill="url(#Gradient1)" transform="translate(0,0)"></path>
<path d="M 667.393 980.549 C 686.119 976.103 704.903 987.679 709.347 1006.41 C 713.791 1025.13 702.212 1043.91 683.485 1048.36 C 664.762 1052.8 645.983 1041.22 641.54 1022.5 C 637.096 1003.77 648.671 984.994 667.393 980.549 z" fill="rgb(1,9,15)" transform="translate(0,0)"></path>
<metadata><recraft-signature>{"signed_by": "recraft", "signature_b64": "Iz5JFrHFWcZap+qJrk9gNocKbBVQr8MXLv6hJX+wuqDeR4Bk1Rb0Sp+hOF4c5QJcYoDrm4XLwZcan2aGKWQkAQ==", "signing_algo": "Ed25519", "generation_timestamp": 1783013137, "identifier": "e5a4f4da-bb54-40d0-9a6d-7381d3483402"}</recraft-signature></metadata></svg>