<svg xmlns="http://www.w3.org/2000/svg" height="2048" preserveAspectRatio="none" style="display: block;" version="1.1" viewBox="0 0 2048 2048" width="2048">
<defs>
	<linearGradient gradientUnits="userSpaceOnUse" id="Gradient1" x1="1031.11" x2="1089.18" y1="1392.34" y2="1522.3">
		<stop class="stop0" offset="0" stop-color="rgb(247,208,136)" stop-opacity="1"></stop>
		<stop class="stop1" offset="1" stop-color="rgb(250,231,184)" stop-opacity="1"></stop>
	</linearGradient>
	<linearGradient gradientUnits="userSpaceOnUse" id="Gradient2" x1="805.62" x2="894.794" y1="870.869" y2="1210.92">
		<stop class="stop0" offset="0" stop-color="rgb(249,176,75)" stop-opacity="1"></stop>
		<stop class="stop1" offset="1" stop-color="rgb(250,204,124)" stop-opacity="1"></stop>
	</linearGradient>
	<linearGradient gradientUnits="userSpaceOnUse" id="Gradient3" x1="1261.28" x2="1095.13" y1="881.447" y2="1190.79">
		<stop class="stop0" offset="0" stop-color="rgb(248,174,73)" stop-opacity="1"></stop>
		<stop class="stop1" offset="1" stop-color="rgb(249,204,127)" stop-opacity="1"></stop>
	</linearGradient>
</defs>
<path d="M 0 0 L 981.134 0 L 1066.6 0 L 2048 0 L 2048 979.504 L 2048 1065.93 L 2048 2048 L 1064.94 2048 L 984.064 2048 L 0 2048 L 0 1064.76 L 0 987.262 L 0 0 z" fill="rgb(42,14,16)" transform="translate(0,0)"></path>
<path d="M 2048 1065.93 L 2048 2048 L 1064.94 2048 C 1076.83 2045.96 1102.66 2045.15 1115.75 2044.21 C 1140.12 2042.29 1164.4 2039.33 1188.51 2035.32 C 1356.99 2008.04 1515.95 1939.01 1650.89 1834.51 C 1841.16 1687.54 1973.69 1478.35 2025.29 1243.54 C 2033.7 1204.4 2039.79 1164.81 2043.56 1124.96 C 2045.29 1106.74 2045.63 1084.12 2047.87 1066.9 L 2048 1065.93 z" fill="rgb(254,253,254)" transform="translate(0,0)"></path>
<path d="M 0 1064.76 L 0.154856 1065.76 C 2.21347 1079.81 2.73073 1103.96 4.11562 1119.31 C 7.38952 1156.81 12.7408 1194.1 20.1448 1231 C 70.2176 1473.81 206.678 1690.21 404.2 1840.05 C 535 1939.63 687.96 2006.08 850.016 2033.7 C 877.204 2038.43 904.587 2041.95 932.084 2044.27 C 941.073 2044.99 977.533 2046.62 984.064 2048 L 0 2048 L 0 1064.76 z" fill="rgb(254,253,254)" transform="translate(0,0)"></path>
<path d="M 0 0 L 981.134 0 L 980.152 0.155175 C 962.559 2.77791 937.537 2.81287 918.483 5.1073 C 883.51 9.31892 849.708 13.7025 815.168 20.9546 C 569.594 71.8922 351.213 211.09 201.36 412.2 C 105.479 540.983 41.4347 690.629 14.463 848.904 C 9.51896 878.535 5.83789 908.363 3.42981 938.308 C 2.49044 949.922 1.63259 978.581 0 987.262 L 0 0 z" fill="rgb(254,253,254)" transform="translate(0,0)"></path>
<path d="M 1066.6 0 L 2048 0 L 2048 979.504 C 2046.36 971.005 2045.08 939.979 2044.16 929.44 C 2041.37 900.259 2037.51 871.19 2032.6 842.291 C 2004.17 683.055 1938.3 532.855 1840.43 404.069 C 1693.19 210.494 1481.95 75.5377 1244.41 23.285 C 1207.46 15.2004 1170.07 9.23072 1132.44 5.40517 C 1114.9 3.70681 1083.57 2.55955 1067.54 0.150742 L 1066.6 0 z" fill="rgb(254,253,254)" transform="translate(0,0)"></path>
<path d="M 812.537 1443.15 C 797.796 1452.25 759.192 1463.85 741.368 1468.3 C 651.158 1490.02 556.036 1475.74 476.178 1428.5 C 373.712 1366.66 307.6 1260.62 279.384 1145.99 C 247.163 1014.98 267.658 876.558 336.459 760.504 C 401.832 652.61 506.648 575.828 636.139 571.946 C 712.457 569.658 775.69 586.921 840.588 626.752 L 838.816 628.245 C 836.758 626.97 834.15 625.486 832.009 624.334 C 759.889 585.544 673.762 574.571 595.104 597.595 C 500.103 625.402 422.898 698.114 376.342 783.854 C 313.262 900.027 300.435 1042.29 337.635 1168.7 C 369.244 1276.11 438.618 1375.06 538.176 1428.85 C 602.774 1463.39 677.317 1474.56 749.203 1460.48 C 770.819 1456.3 791.474 1449.48 812.537 1443.15 z" fill="rgb(161,170,144)" transform="translate(0,0)"></path>
<path d="M 1204.84 628.117 C 1284.75 576.353 1382.21 559.134 1475.02 580.381 C 1573.72 602.611 1657.04 671.609 1709.23 756.947 C 1779.16 871.315 1800.35 1009.57 1770.4 1139.93 C 1720.94 1355.2 1538.69 1521.8 1308.09 1467.98 C 1286.75 1463.17 1265.98 1456.12 1246.13 1446.95 L 1248.45 1445.61 C 1258.68 1449.33 1269.07 1452.59 1279.58 1455.38 C 1360.51 1477.18 1446.79 1465.77 1519.26 1423.67 C 1665.09 1339.15 1738.78 1166.14 1731.94 1002 C 1727.72 900.746 1693.18 799.24 1629.42 719.605 C 1583.91 662.765 1518.84 614.499 1447.7 596.125 C 1366.31 575.058 1279.89 586.939 1207.2 629.188 L 1204.84 628.117 z" fill="rgb(161,170,144)" transform="translate(0,0)"></path>
<path d="M 878.57 684.448 C 765.492 620.815 636.07 625.589 536.507 712.825 C 351.851 874.619 359.816 1198.99 553.341 1350.56 C 636.104 1415.38 742.968 1429.67 840.566 1392.01 C 843.815 1390.76 860.935 1383.16 862.344 1383.26 C 860.951 1385.8 855.208 1388.23 852.326 1389.78 C 825.025 1404.27 795.8 1414.81 765.529 1421.06 C 687.703 1436.4 600.046 1417.76 534.635 1373.58 C 344.729 1245.31 308.029 963.187 432.425 777.403 C 536.013 622.696 724.993 577.031 881.07 682.994 L 878.57 684.448 z" fill="rgb(161,170,144)" transform="translate(0,0)"></path>
<path d="M 1161.71 688.054 C 1227.59 638.582 1310.45 617.358 1392 629.068 C 1480.24 642.073 1557.13 694.36 1608.6 766.062 C 1678.6 864.433 1700.72 980.15 1682.93 1098.46 C 1654.65 1286.45 1495.44 1452.07 1294.86 1423.12 C 1267.75 1419.21 1202.96 1399.28 1183.58 1379.98 C 1200.53 1387.52 1217.79 1395.55 1235.57 1400.88 C 1296.31 1418.51 1361.15 1415.9 1420.28 1393.44 C 1506.25 1360.41 1573.27 1285.62 1609.96 1202.52 C 1656.76 1094.9 1659.24 973.161 1616.86 863.721 C 1552.45 698.706 1391.56 592.944 1214.53 663.316 C 1196.64 670.407 1179.39 679.027 1162.98 689.08 L 1161.71 688.054 z" fill="rgb(161,170,144)" transform="translate(0,0)"></path>
<path d="M 1027.12 507.835 C 1030.05 508.685 1034.05 512.757 1036.32 514.828 C 1093.75 567.275 1139.78 637.912 1110.68 718.1 C 1095.48 760.006 1073.05 787.71 1043.58 820.158 C 1023.44 781.24 1021.71 729.351 1029.8 686.906 C 1031.84 676.203 1041.7 657.18 1035.29 648.553 C 1031.8 646.753 1031.3 647.021 1027.48 647.489 C 1020.59 655.914 1016.83 670.339 1013.28 680.787 C 996.436 730.371 996.363 773.272 1011.05 822.992 C 998.678 812.142 981.423 791.418 971.685 778.218 C 943.806 740.43 924.545 692.619 932.567 644.968 C 942.398 586.575 980.554 541.71 1027.12 507.835 z" fill="rgb(161,170,144)" transform="translate(0,0)"></path>
<path d="M 888.209 1334 C 867.045 1350.87 820.439 1364.57 794.378 1368.45 C 721.594 1378.95 647.613 1360.2 588.616 1316.3 C 431.243 1199.46 409.195 952.324 524.549 799.171 C 580.597 724.756 660.409 679.859 754.969 682.864 C 816.343 684.815 866.63 703.023 915.469 739.717 L 914.982 741.995 C 911.12 739.571 907.208 737.228 903.248 734.968 C 764.372 655.888 614.493 706.128 537.715 842.313 C 448.508 1000.54 485.43 1234.66 651.486 1327.08 C 706.643 1357.9 771.364 1366.87 832.823 1352.21 C 854.678 1346.82 868.296 1339.6 887.09 1334.31 L 888.209 1334 z" fill="rgb(236,214,161)" transform="translate(0,0)"></path>
<path d="M 1132.64 741.413 C 1259.94 643.554 1426.91 671.378 1523.1 797.306 C 1640.62 951.151 1618.67 1196.25 1461.12 1315.19 C 1403.06 1359.3 1329.88 1378.59 1257.62 1368.83 C 1232.22 1365.23 1208.38 1358.56 1185.02 1347.96 C 1180.53 1345.93 1167.89 1340.4 1165.28 1336.52 C 1172.37 1336.46 1194.28 1346.42 1202.78 1348.89 C 1296.47 1376.04 1394.54 1347.36 1462.53 1277.76 C 1592.77 1144.43 1592.26 904.583 1459.58 773.071 C 1411.36 725.27 1347.45 696.093 1279 697.467 C 1227.59 698.797 1177.55 714.356 1134.45 742.415 L 1132.64 741.413 z" fill="rgb(236,214,161)" transform="translate(0,0)"></path>
<path d="M 949.599 801.583 C 836.167 725.949 701.409 744.65 623.843 860.609 C 538.539 988.138 565.542 1185.86 697.755 1271.75 C 747.947 1303.73 808.806 1314.41 866.887 1301.43 C 871.244 1300.48 896.467 1293.64 898.444 1293.83 L 899.581 1295.36 C 898.594 1298.08 897.683 1298.97 894.73 1300.13 C 807.839 1334.39 712.889 1321.36 640.718 1261.43 C 540.549 1178.26 513.93 1031.15 558.578 912.146 C 582.932 847.232 630.837 788.939 695.164 760.205 C 752.882 735.056 818.217 733.815 876.849 756.753 C 904.025 767.149 929.303 781.951 951.668 800.563 L 949.599 801.583 z" fill="rgb(236,214,161)" transform="translate(0,0)"></path>
<path d="M 1102.77 798.124 C 1156.42 755.879 1219.16 734.049 1288.01 742.098 C 1350.74 749.652 1407.82 782.019 1446.51 831.967 C 1536.01 945.357 1533.7 1118.76 1440.62 1229.26 C 1429.19 1242.83 1417.12 1255.11 1403.06 1266 C 1350.11 1307.57 1282.49 1325.72 1215.84 1316.28 C 1203.56 1314.63 1154.1 1304.75 1147.52 1295.76 L 1147.79 1294.39 C 1148.53 1294.08 1149.27 1293.76 1150.01 1293.45 C 1166.79 1296.94 1185.98 1302.98 1202.79 1304.8 C 1317.52 1317.28 1411.53 1250.5 1453.49 1145.97 C 1484.18 1068.57 1483.14 982.188 1450.6 905.544 C 1425.38 847.074 1379.73 794.661 1319.58 771.046 C 1263.67 749.723 1201.56 751.639 1147.08 776.368 C 1132.49 782.764 1118.47 790.412 1105.2 799.225 L 1102.77 798.124 z" fill="rgb(236,214,161)" transform="translate(0,0)"></path>
<path d="M 971.467 857.29 C 887.973 793.7 776.958 800.579 708.738 882.34 C 630.853 975.685 642.313 1129.62 736.113 1207.4 C 773.757 1238.85 821.977 1254.76 870.947 1251.9 C 885.181 1251.01 896.942 1247.55 910.732 1245.66 C 913.136 1245.33 914.756 1246.18 916.512 1247.72 C 917.012 1254.13 907.555 1256.24 902.719 1257.54 C 830.614 1276.89 751.87 1260.66 696.888 1209.48 C 601.554 1120.72 597.642 956.254 686.571 861.893 C 722.673 823.587 768.988 800.937 822.008 799.279 C 877.554 797.243 931.656 817.236 972.53 854.904 L 971.467 857.29 z" fill="rgb(236,214,161)" transform="translate(0,0)"></path>
<path d="M 1073.67 858.813 C 1204.54 737.648 1392.76 810.781 1423.02 982.652 C 1449.17 1131.17 1348.51 1275.09 1190.83 1264.87 C 1180.97 1264.23 1126.34 1259.55 1126.36 1246.71 C 1133.3 1241.29 1153.52 1249.93 1163.28 1250.92 C 1284.71 1263.2 1376.5 1179.86 1392.32 1061.48 C 1401.03 1000.69 1384.86 938.956 1347.47 890.241 C 1278.57 800.665 1164.32 791.376 1076.3 859.352 L 1073.67 858.813 z" fill="rgb(236,214,161)" transform="translate(0,0)"></path>
<path d="M 1061.96 907.807 C 1101.57 872.942 1141.69 855.992 1195.56 859.005 C 1235.12 861.217 1274.55 881.954 1300.53 911.774 C 1331.71 948.018 1347.13 995.206 1343.38 1042.87 C 1335.87 1146.28 1252.18 1219.25 1149.43 1209.91 C 1139.26 1208.99 1121.94 1207.86 1112.91 1202.03 C 1112.01 1201.32 1111.93 1199.37 1111.69 1198.04 L 1112.79 1195.44 C 1124.06 1193.79 1141.35 1196.78 1153.74 1196.66 C 1256.84 1195.71 1322.42 1102.25 1307.7 1003.96 C 1301.72 962.112 1279.15 924.429 1245.08 899.409 C 1191.43 860.437 1114.1 869.713 1064 910.06 L 1061.96 907.807 z" fill="url(#Gradient3)" transform="translate(0,0)"></path>
<path d="M 944.818 885.66 C 929.019 880.381 916.055 876.55 899.242 875.172 C 771.814 864.729 707.082 1006.57 759.135 1110.98 C 777.565 1148.69 810.595 1177.25 850.579 1190.04 C 868.027 1195.91 886.467 1198.25 904.828 1196.94 C 912.207 1196.35 919.868 1195.12 927.233 1194.79 C 930.836 1194.63 930.421 1195.2 932.814 1197.58 C 934.571 1206.42 910.954 1208.44 904.664 1209.24 C 804.484 1221.96 719.239 1153.35 707.493 1053.42 C 701.475 1005 715.186 956.185 745.54 917.976 C 771.099 886.071 808.602 864.077 849.438 859.645 C 888.696 855.19 928.268 864.728 961.186 886.579 C 952.506 888.789 953.398 885.165 944.818 885.66 z" fill="url(#Gradient2)" transform="translate(0,0)"></path>
<path d="M 1049.23 959.906 C 1131.39 879.405 1260.76 915.066 1261.21 1035.52 C 1261.48 1107.3 1202.34 1158.78 1132.52 1155.98 C 1124.67 1155.66 1107.39 1155.43 1101.51 1151.03 C 1099.81 1147.61 1100.09 1149.38 1100.77 1145.52 C 1102.48 1143.52 1103.97 1142.13 1106.88 1142.27 C 1143.6 1143.96 1174.54 1136.08 1200.74 1107.99 C 1238.01 1068.03 1237.11 993.399 1195.34 956.411 C 1153.59 919.308 1092.97 930.175 1051.35 961.322 L 1049.23 959.906 z" fill="rgb(248,179,83)" transform="translate(0,0)"></path>
<path d="M 1004.48 964.122 C 987.878 952.458 977.5 945.371 957.951 938.937 C 879.35 913.068 810.032 974.395 825.737 1057.36 C 830.598 1084.4 846.098 1108.37 868.768 1123.89 C 890.246 1138.48 911.635 1142.42 936.612 1142.87 C 939.342 1142.92 940.075 1144.06 941.736 1145.8 C 942.397 1149.53 942.602 1147.76 940.959 1151.3 C 932.321 1157.9 904.249 1155.88 893.588 1154.42 C 861.991 1150.33 833.339 1133.78 814.003 1108.46 C 793.021 1080.42 784.167 1041.89 792.458 1008.12 C 818.726 901.15 937.885 890.522 1006.54 963.386 L 1004.48 964.122 z" fill="rgb(248,179,83)" transform="translate(0,0)"></path>
<path d="M 1050.94 1272.3 C 1050.27 1267.66 1050.61 1249.74 1050.65 1244.32 L 1051.08 1191.69 L 1051.27 1128.5 C 1051.28 1118.01 1051.18 1107.44 1051.45 1097.01 C 1051.63 1089.8 1060.69 1085.36 1066.15 1090.55 C 1067.99 1092.29 1069.15 1094.75 1069.34 1097.24 C 1070.83 1117.15 1069.79 1137.32 1070.18 1157.28 C 1069.79 1193.24 1071.03 1230.58 1069.9 1266.33 C 1070.79 1325.49 1071.12 1384.65 1070.87 1443.81 L 1070.96 1492.03 C 1071.07 1501.74 1071.82 1511.94 1071.05 1521.61 C 1070.72 1525.82 1069.88 1531.96 1066.49 1534.96 C 1064.55 1536.67 1062.23 1537.25 1059.73 1536.81 C 1056.71 1536.27 1052.91 1533.68 1051.7 1530.78 C 1048.88 1524.03 1049.65 1302.62 1050.94 1272.3 z" fill="rgb(248,179,83)" transform="translate(0,0)"></path>
<path d="M 1050.94 1272.3 C 1057.15 1287.57 1048.33 1373.39 1053.74 1383.2 C 1065.98 1381.88 1061.13 1387.08 1067.91 1386.51 C 1072.55 1381.71 1064.67 1281.37 1069.9 1266.33 C 1070.79 1325.49 1071.12 1384.65 1070.87 1443.81 L 1070.96 1492.03 C 1071.07 1501.74 1071.82 1511.94 1071.05 1521.61 C 1070.72 1525.82 1069.88 1531.96 1066.49 1534.96 C 1064.55 1536.67 1062.23 1537.25 1059.73 1536.81 C 1056.71 1536.27 1052.91 1533.68 1051.7 1530.78 C 1048.88 1524.03 1049.65 1302.62 1050.94 1272.3 z" fill="url(#Gradient1)" transform="translate(0,0)"></path>
<path d="M 977.145 1330.29 C 976.989 1275.42 977.193 1220.55 977.756 1165.69 C 977.929 1151.7 978.003 1137.71 977.979 1123.71 C 977.913 1113.69 974.316 1091.45 985.938 1088 C 989.435 1088.26 991.22 1088.81 993.596 1091.59 C 995.692 1094.08 996.93 1097.17 997.127 1100.42 C 997.491 1106.57 996.731 1119.44 996.749 1126.66 L 996.997 1197.32 L 997.139 1288.92 C 997.142 1304.51 997.626 1323.79 996.886 1339.12 C 996.027 1333.79 997.26 1329.64 994.38 1325.25 L 995.158 1327.65 C 991.803 1319.73 984.691 1322.76 980.169 1327.51 L 979.237 1327.33 L 978.793 1319.14 L 978.327 1319.6 C 978.282 1323.48 977.729 1326.44 977.145 1330.29 z" fill="rgb(248,179,83)" transform="translate(0,0)"></path>
<path d="M 977.145 1330.29 C 977.729 1326.44 978.282 1323.48 978.327 1319.6 L 978.793 1319.14 L 979.237 1327.33 L 980.169 1327.51 C 984.691 1322.76 991.803 1319.73 995.158 1327.65 L 994.38 1325.25 C 997.26 1329.64 996.027 1333.79 996.886 1339.12 C 997.462 1347.93 997.05 1362.67 997.039 1371.85 L 996.812 1436.16 L 996.61 1495.58 C 996.618 1504.94 998.425 1524.34 994.645 1532.7 C 991.539 1539.57 977.398 1537.9 976.982 1527.49 C 975.984 1502.59 976.355 1477.56 976.593 1452.58 L 977.145 1330.29 z" fill="rgb(236,214,161)" transform="translate(0,0)"></path>
<path d="M 944.818 885.66 C 953.398 885.165 952.506 888.789 961.186 886.579 C 970.71 890.483 987.924 907.545 995.353 914.71 L 992.776 915.042 C 979.965 902.355 961.107 892.919 944.818 885.66 z" fill="rgb(248,179,83)" transform="translate(0,0)"></path>
<path d="M 972.53 854.904 C 975.978 857.973 978.397 860.162 981.498 863.588 C 981.386 866.964 979.784 864.845 978.047 863.078 L 976.935 861.982 C 975.203 860.22 973.367 858.889 971.467 857.29 L 972.53 854.904 z" fill="rgb(226,155,81)" transform="translate(0,0)"></path>
<path d="M 976.935 861.982 C 979.141 863.208 979.085 863.348 981.498 863.588 C 981.386 866.964 979.784 864.845 978.047 863.078 L 976.935 861.982 z" fill="rgb(86,48,34)" transform="translate(0,0)"></path>
<path d="M 1246.13 1446.95 C 1243.17 1446.15 1236.39 1442.55 1233.42 1440.86 L 1233.55 1440.76 L 1233.38 1440.64 C 1233.42 1440.52 1233.47 1440.41 1233.51 1440.29 C 1234.78 1439.99 1240.98 1442.73 1242.63 1443.37 L 1246.77 1444.98 L 1248.45 1445.61 L 1246.13 1446.95 z" fill="rgb(108,94,77)" transform="translate(0,0)"></path>
<path d="M 1061.96 907.807 L 1064 910.06 C 1061.31 912.345 1058.68 914.478 1056.27 917.06 L 1053.47 916.65 C 1056.57 913.899 1058.98 910.837 1061.96 907.807 z" fill="rgb(226,155,81)" transform="translate(0,0)"></path>
<path d="M 1192.07 637.972 C 1194.79 635.452 1198.83 631.546 1201.98 629.748 L 1204.84 628.117 L 1207.2 629.188 C 1203.45 632.085 1196.38 635.632 1192.07 637.972 z" fill="rgb(108,94,77)" transform="translate(0,0)"></path>
<path d="M 881.07 682.994 C 884.975 685.687 888.592 688.782 892.281 691.759 C 887.573 689.59 882.995 687.148 878.57 684.448 L 881.07 682.994 z" fill="rgb(145,138,115)" transform="translate(0,0)"></path>
<path d="M 840.588 626.752 C 842.248 627.605 846.937 629.669 846.664 631.691 C 845.234 632.825 840.052 629.178 838.816 628.245 L 840.588 626.752 z" fill="rgb(85,70,59)" transform="translate(0,0)"></path>
<path d="M 1008.48 965.632 C 1011.94 968.749 1013.38 971.812 1015.83 975.75 C 1012.96 972.928 1009.21 969.453 1006.61 966.482 L 1008.48 965.632 z" fill="rgb(136,79,45)" transform="translate(0,0)"></path>
<path d="M 1102.77 798.124 L 1105.2 799.225 C 1103.33 800.621 1101.5 801.98 1099.48 803.154 C 1099.16 803.342 1097.36 804.078 1097.54 803.304 C 1097.93 801.736 1101.62 799.039 1102.77 798.124 z" fill="rgb(199,174,137)" transform="translate(0,0)"></path>
<path d="M 1047.23 965.085 L 1043.65 968.438 C 1037.75 974.01 1040.32 968.362 1044.66 964.602 L 1047.23 965.085 z" fill="rgb(136,79,45)" transform="translate(0,0)"></path>
<path d="M 1073.67 858.813 L 1076.3 859.352 C 1073.98 861.533 1072.01 862.873 1069.66 864.892 L 1068.32 864.199 C 1070.15 862.242 1071.73 860.653 1073.67 858.813 z" fill="rgb(169,133,97)" transform="translate(0,0)"></path>
<path d="M 951.668 800.563 C 952.382 801.077 956.82 803.969 955.698 805.386 C 953.812 805.745 950.776 802.773 949.599 801.583 L 951.668 800.563 z" fill="rgb(108,94,77)" transform="translate(0,0)"></path>
<path d="M 995.353 914.71 C 996.322 915.685 999.52 918.872 999.626 919.951 C 999.881 922.54 993.096 915.361 992.776 915.042 L 995.353 914.71 z" fill="rgb(136,79,45)" transform="translate(0,0)"></path>
<path d="M 1044.66 964.602 C 1046.2 963.05 1047.72 961.484 1049.23 959.906 L 1051.35 961.322 C 1049.94 962.587 1048.61 963.785 1047.23 965.085 L 1044.66 964.602 z" fill="rgb(226,155,81)" transform="translate(0,0)"></path>
<path d="M 915.469 739.717 C 916.864 740.785 920.71 743.478 921.113 745.228 L 921.049 745.355 C 919.535 745.653 916.157 742.868 914.982 741.995 L 915.469 739.717 z" fill="rgb(199,174,137)" transform="translate(0,0)"></path>
<path d="M 1069.66 864.892 C 1064.68 871.776 1061.5 869.513 1068.32 864.199 L 1069.66 864.892 z" fill="rgb(86,48,34)" transform="translate(0,0)"></path>
<path d="M 1053.47 916.65 L 1056.27 917.06 C 1055.52 917.803 1051.05 922.866 1050.26 920.852 L 1050.52 921.017 L 1050.55 919.918 C 1051.49 918.423 1052.16 917.858 1053.47 916.65 z" fill="rgb(136,79,45)" transform="translate(0,0)"></path>
<path d="M 1132.64 741.413 L 1134.45 742.415 C 1128.35 747.199 1125.62 746.398 1132.64 741.413 z" fill="rgb(169,133,97)" transform="translate(0,0)"></path>
<path d="M 1162.98 689.08 C 1162.39 689.476 1158.32 692.677 1157.64 691.387 C 1158.06 690.097 1160.56 688.783 1161.71 688.054 L 1162.98 689.08 z" fill="rgb(145,138,115)" transform="translate(0,0)"></path>
<path d="M 1006.54 963.386 C 1007.19 964.135 1007.84 964.883 1008.48 965.632 L 1006.61 966.482 L 1004.48 964.122 L 1006.54 963.386 z" fill="rgb(226,155,81)" transform="translate(0,0)"></path>
<metadata><recraft-signature>{"signed_by": "recraft", "signature_b64": "kG905UugyWT7zsHFM8PRY3yXc43g1v0lXAZCOfQEPsFWr8pQeCHTAJl94vdbaLuJQwVa16EUI4xLSWJHAKqNAQ==", "signing_algo": "Ed25519", "generation_timestamp": 1783024166, "identifier": "71ec78e8-391e-494a-bd20-52e776ad8f5b"}</recraft-signature></metadata></svg>