<svg width="32" height="32" viewBox="0 0 32 32" fill="none" xmlns="http://www.w3.org/2000/svg">
  <defs>
    <linearGradient id="ring" x1="0" y1="0" x2="32" y2="32" gradientUnits="userSpaceOnUse">
      <stop stop-color="#b388ff"/>
      <stop offset="0.5" stop-color="#7c4dff"/>
      <stop offset="1" stop-color="#e040fb"/>
    </linearGradient>
    <linearGradient id="gold" x1="6" y1="10" x2="26" y2="22" gradientUnits="userSpaceOnUse">
      <stop stop-color="#f5d77a"/>
      <stop offset="1" stop-color="#ffcf6a"/>
    </linearGradient>
  </defs>
  <!-- vault seal -->
  <rect x="1" y="1" width="30" height="30" rx="8" fill="#0a0418"/>
  <rect x="1.75" y="1.75" width="28.5" height="28.5" rx="7.25" fill="none" stroke="url(#ring)" stroke-width="1.6"/>
  <!-- infinity (the seal) -->
  <g stroke="url(#gold)" stroke-width="2.1" stroke-linecap="round" fill="none">
    <path d="M11.4 13.6c-1.9 0-3.1 1.1-3.1 2.4s1.2 2.4 3.1 2.4c2.6 0 3.5-4.8 6.1-4.8 1.9 0 3.1 1.1 3.1 2.4s-1.2 2.4-3.1 2.4c-2.6 0-3.5-4.8-6.1-4.8z" opacity="0.95"/>
    <!-- signature flourish -->
    <path d="M7.5 23.5c2.4-1.1 5-1.4 8.5-1.4 4 0 6 .9 8.5-.4" opacity="0.85"/>
  </g>
  <circle cx="16" cy="9.2" r="1.1" fill="#f5d77a"/>
</svg>
